<mxfile host="65bd71144e">
    <diagram id="QwLRxETMtKNknzj1DCb_" name="Page-1">
        <mxGraphModel dx="2395" dy="1039" grid="1" gridSize="10" guides="1" tooltips="1" connect="1" arrows="1" fold="1" page="1" pageScale="1" pageWidth="850" pageHeight="1100" math="0" shadow="0">
            <root>
                <mxCell id="0"/>
                <mxCell id="1" parent="0"/>
                <mxCell id="3" value="" style="rounded=0;whiteSpace=wrap;html=1;movable=1;resizable=1;rotatable=1;deletable=1;editable=1;locked=0;connectable=1;" parent="1" vertex="1">
                    <mxGeometry x="-270" y="10" width="1070" height="960" as="geometry"/>
                </mxCell>
                <mxCell id="2" value="Financial Officer&amp;nbsp;" style="shape=umlActor;verticalLabelPosition=bottom;verticalAlign=top;html=1;outlineConnect=0;" parent="1" vertex="1">
                    <mxGeometry x="-450" y="330" width="110" height="220" as="geometry"/>
                </mxCell>
                <mxCell id="4" value="Manage Invoice" style="ellipse;whiteSpace=wrap;html=1;fontFamily=Times New Roman;fontSize=18;" parent="1" vertex="1">
                    <mxGeometry x="-160" y="90" width="270" height="80" as="geometry"/>
                </mxCell>
                <mxCell id="7" value="Manage Financial Documents&amp;nbsp;" style="ellipse;whiteSpace=wrap;html=1;fontFamily=Times New Roman;fontSize=18;" parent="1" vertex="1">
                    <mxGeometry x="-130" y="430" width="280" height="110" as="geometry"/>
                </mxCell>
                <mxCell id="72" style="edgeStyle=none;html=1;entryX=1;entryY=0.5;entryDx=0;entryDy=0;" edge="1" parent="1" target="4">
                    <mxGeometry relative="1" as="geometry">
                        <mxPoint x="460" y="160" as="sourcePoint"/>
                        <mxPoint x="120" y="130" as="targetPoint"/>
                    </mxGeometry>
                </mxCell>
                <mxCell id="73" style="edgeStyle=none;html=1;exitX=0;exitY=0.5;exitDx=0;exitDy=0;" edge="1" parent="1" source="10">
                    <mxGeometry relative="1" as="geometry">
                        <mxPoint x="100" y="149" as="targetPoint"/>
                    </mxGeometry>
                </mxCell>
                <mxCell id="10" value="Upload Invoice&amp;nbsp;" style="ellipse;whiteSpace=wrap;html=1;fontFamily=Times New Roman;fontSize=18;" parent="1" vertex="1">
                    <mxGeometry x="242.5" y="200" width="240" height="50" as="geometry"/>
                </mxCell>
                <mxCell id="74" style="edgeStyle=none;html=1;exitX=0.065;exitY=0.373;exitDx=0;exitDy=0;exitPerimeter=0;" edge="1" parent="1" source="11">
                    <mxGeometry relative="1" as="geometry">
                        <mxPoint x="70" y="167" as="targetPoint"/>
                        <mxPoint x="150" y="260" as="sourcePoint"/>
                    </mxGeometry>
                </mxCell>
                <mxCell id="11" value="View Invoices&amp;nbsp;" style="ellipse;whiteSpace=wrap;html=1;fontFamily=Times New Roman;fontSize=18;" parent="1" vertex="1">
                    <mxGeometry x="160" y="270" width="200" height="60" as="geometry"/>
                </mxCell>
                <mxCell id="77" style="edgeStyle=none;html=1;exitX=0;exitY=0.5;exitDx=0;exitDy=0;" edge="1" parent="1" source="82">
                    <mxGeometry relative="1" as="geometry">
                        <mxPoint x="70" y="100" as="targetPoint"/>
                        <mxPoint x="140" y="65" as="sourcePoint"/>
                    </mxGeometry>
                </mxCell>
                <mxCell id="66" style="edgeStyle=none;html=1;exitX=0;exitY=0.5;exitDx=0;exitDy=0;entryX=0.945;entryY=0.336;entryDx=0;entryDy=0;entryPerimeter=0;" edge="1" parent="1" source="26" target="7">
                    <mxGeometry relative="1" as="geometry">
                        <mxPoint x="160" y="480" as="targetPoint"/>
                    </mxGeometry>
                </mxCell>
                <mxCell id="26" value="View Financial Documents" style="ellipse;whiteSpace=wrap;html=1;fontFamily=Times New Roman;fontSize=18;" parent="1" vertex="1">
                    <mxGeometry x="225" y="380" width="225" height="70" as="geometry"/>
                </mxCell>
                <mxCell id="67" style="edgeStyle=none;html=1;exitX=0.094;exitY=0.2;exitDx=0;exitDy=0;exitPerimeter=0;entryX=0.951;entryY=0.73;entryDx=0;entryDy=0;entryPerimeter=0;" edge="1" parent="1" source="27" target="7">
                    <mxGeometry relative="1" as="geometry">
                        <mxPoint x="160" y="530" as="targetPoint"/>
                    </mxGeometry>
                </mxCell>
                <mxCell id="27" value="Verifies Files" style="ellipse;whiteSpace=wrap;html=1;fontFamily=Times New Roman;fontSize=18;" parent="1" vertex="1">
                    <mxGeometry x="350" y="580" width="240" height="50" as="geometry"/>
                </mxCell>
                <mxCell id="87" style="edgeStyle=none;html=1;exitX=0;exitY=0.5;exitDx=0;exitDy=0;entryX=1;entryY=0.5;entryDx=0;entryDy=0;" edge="1" parent="1" source="28" target="7">
                    <mxGeometry relative="1" as="geometry">
                        <mxPoint x="160" y="500.3333333333335" as="targetPoint"/>
                    </mxGeometry>
                </mxCell>
                <mxCell id="28" value="Upload Financial Files" style="ellipse;whiteSpace=wrap;html=1;fontFamily=Times New Roman;fontSize=18;" parent="1" vertex="1">
                    <mxGeometry x="350" y="475" width="240" height="65" as="geometry"/>
                </mxCell>
                <mxCell id="86" style="edgeStyle=none;html=1;exitX=0;exitY=0;exitDx=0;exitDy=0;entryX=0.761;entryY=0.912;entryDx=0;entryDy=0;entryPerimeter=0;" edge="1" parent="1" source="38" target="7">
                    <mxGeometry relative="1" as="geometry">
                        <mxPoint x="130" y="530" as="targetPoint"/>
                    </mxGeometry>
                </mxCell>
                <mxCell id="38" value="Download Files" style="ellipse;whiteSpace=wrap;html=1;fontFamily=Times New Roman;fontSize=18;" parent="1" vertex="1">
                    <mxGeometry x="210" y="650" width="200" height="50" as="geometry"/>
                </mxCell>
                <mxCell id="40" value="Search Document by Client id" style="ellipse;whiteSpace=wrap;html=1;fontFamily=Times New Roman;fontSize=18;" parent="1" vertex="1">
                    <mxGeometry x="560" y="390" width="240" height="50" as="geometry"/>
                </mxCell>
                <mxCell id="41" value="Manage Shipments" style="ellipse;whiteSpace=wrap;html=1;fontFamily=Times New Roman;fontSize=18;" parent="1" vertex="1">
                    <mxGeometry x="-110" y="860" width="335" height="70" as="geometry"/>
                </mxCell>
                <mxCell id="59" value="FInancial Officer&#39;s Use case D iagram" style="text;html=1;align=center;verticalAlign=middle;resizable=0;points=[];autosize=1;strokeColor=none;fillColor=none;fontSize=20;fontFamily=Times New Roman;" parent="1" vertex="1">
                    <mxGeometry x="110" y="10" width="330" height="40" as="geometry"/>
                </mxCell>
                <mxCell id="62" value="" style="endArrow=none;html=1;" edge="1" parent="1" source="2">
                    <mxGeometry width="50" height="50" relative="1" as="geometry">
                        <mxPoint x="120" y="380" as="sourcePoint"/>
                        <mxPoint x="-160" y="140" as="targetPoint"/>
                    </mxGeometry>
                </mxCell>
                <mxCell id="90" value="&lt;font style=&quot;font-size: 14px;&quot;&gt;&amp;lt;&amp;lt;Extend&amp;gt;&amp;gt;&lt;/font&gt;" style="edgeStyle=none;html=1;exitX=0;exitY=0.5;exitDx=0;exitDy=0;entryX=1;entryY=0.5;entryDx=0;entryDy=0;dashed=1;" edge="1" parent="1" source="64" target="41">
                    <mxGeometry relative="1" as="geometry"/>
                </mxCell>
                <mxCell id="64" value="Search Shipment By Client Id" style="ellipse;whiteSpace=wrap;html=1;fontFamily=Times New Roman;fontSize=18;" vertex="1" parent="1">
                    <mxGeometry x="440" y="860" width="320" height="70" as="geometry"/>
                </mxCell>
                <mxCell id="71" value="&lt;font style=&quot;font-size: 14px;&quot;&gt;&amp;lt;&amp;lt;extend&amp;gt;&amp;gt;&lt;/font&gt;" style="edgeStyle=none;html=1;exitX=0;exitY=0.5;exitDx=0;exitDy=0;dashed=1;" edge="1" parent="1" source="40" target="26">
                    <mxGeometry relative="1" as="geometry">
                        <mxPoint x="470" y="425" as="targetPoint"/>
                    </mxGeometry>
                </mxCell>
                <mxCell id="76" style="edgeStyle=none;html=1;exitX=0.5;exitY=0;exitDx=0;exitDy=0;" edge="1" parent="1" source="75">
                    <mxGeometry relative="1" as="geometry">
                        <mxPoint y="170" as="targetPoint"/>
                        <mxPoint x="-20" y="320" as="sourcePoint"/>
                    </mxGeometry>
                </mxCell>
                <mxCell id="75" value="Delete Invoice" style="ellipse;whiteSpace=wrap;html=1;fontFamily=Times New Roman;fontSize=18;" vertex="1" parent="1">
                    <mxGeometry x="-110" y="310" width="240" height="50" as="geometry"/>
                </mxCell>
                <mxCell id="82" value="Create Invoice&amp;nbsp;" style="ellipse;whiteSpace=wrap;html=1;fontFamily=Times New Roman;fontSize=20;" vertex="1" parent="1">
                    <mxGeometry x="150" y="60" width="235" height="60" as="geometry"/>
                </mxCell>
                <mxCell id="83" value="Update&amp;nbsp; Invoice&amp;nbsp;" style="ellipse;whiteSpace=wrap;html=1;fontFamily=Times New Roman;fontSize=20;" vertex="1" parent="1">
                    <mxGeometry x="465" y="130" width="235" height="60" as="geometry"/>
                </mxCell>
                <mxCell id="84" value="" style="endArrow=none;html=1;" edge="1" parent="1" source="2">
                    <mxGeometry width="50" height="50" relative="1" as="geometry">
                        <mxPoint x="-140" y="550" as="sourcePoint"/>
                        <mxPoint x="-130" y="490" as="targetPoint"/>
                    </mxGeometry>
                </mxCell>
                <mxCell id="89" value="" style="endArrow=none;html=1;entryX=0;entryY=0.5;entryDx=0;entryDy=0;" edge="1" parent="1" target="41">
                    <mxGeometry width="50" height="50" relative="1" as="geometry">
                        <mxPoint x="-330" y="570" as="sourcePoint"/>
                        <mxPoint x="-110" y="820" as="targetPoint"/>
                    </mxGeometry>
                </mxCell>
                <mxCell id="94" value="Manage Clients" style="ellipse;whiteSpace=wrap;html=1;fontFamily=Times New Roman;fontSize=18;" vertex="1" parent="1">
                    <mxGeometry x="-150" y="740" width="335" height="70" as="geometry"/>
                </mxCell>
                <mxCell id="95" value="&lt;font style=&quot;font-size: 14px;&quot;&gt;&amp;lt;&amp;lt;Extend&amp;gt;&amp;gt;&lt;/font&gt;" style="edgeStyle=none;html=1;exitX=0;exitY=0.5;exitDx=0;exitDy=0;dashed=1;" edge="1" parent="1" source="96" target="94">
                    <mxGeometry relative="1" as="geometry">
                        <mxPoint x="202.5" y="775" as="targetPoint"/>
                    </mxGeometry>
                </mxCell>
                <mxCell id="96" value="Search Client By Id" style="ellipse;whiteSpace=wrap;html=1;fontFamily=Times New Roman;fontSize=18;" vertex="1" parent="1">
                    <mxGeometry x="417.5" y="740" width="320" height="70" as="geometry"/>
                </mxCell>
                <mxCell id="97" value="" style="endArrow=none;html=1;" edge="1" parent="1" source="2" target="94">
                    <mxGeometry width="50" height="50" relative="1" as="geometry">
                        <mxPoint x="-140" y="640" as="sourcePoint"/>
                        <mxPoint x="-90" y="590" as="targetPoint"/>
                    </mxGeometry>
                </mxCell>
                <mxCell id="100" value="&lt;font style=&quot;font-size: 14px;&quot;&gt;&amp;lt;&amp;lt;Extend&amp;gt;&amp;gt;&lt;/font&gt;" style="edgeStyle=none;html=1;exitX=0;exitY=0.5;exitDx=0;exitDy=0;entryX=1;entryY=0.5;entryDx=0;entryDy=0;dashed=1;" edge="1" parent="1" source="98" target="11">
                    <mxGeometry relative="1" as="geometry"/>
                </mxCell>
                <mxCell id="98" value="Search Invoice By Clien Id" style="ellipse;whiteSpace=wrap;html=1;fontFamily=Times New Roman;fontSize=18;" vertex="1" parent="1">
                    <mxGeometry x="487.5" y="270" width="250" height="60" as="geometry"/>
                </mxCell>
            </root>
        </mxGraphModel>
    </diagram>
</mxfile>